<?xml version="1.0" encoding="UTF-8" standalone="no"?>
<!-- Generator: Gravit.io -->
<svg xmlns="http://www.w3.org/2000/svg" xmlns:xlink="http://www.w3.org/1999/xlink" style="isolation:isolate" viewBox="0 0 64 64" width="64pt" height="64pt"><defs><clipPath id="_clipPath_8yXvjT8CR8VrBNGA0ejQNjgaFnnxpwKR"><rect width="64" height="64"/></clipPath></defs><g clip-path="url(#_clipPath_8yXvjT8CR8VrBNGA0ejQNjgaFnnxpwKR)"><rect width="64" height="64" style="fill:rgb(0,0,0)" fill-opacity="0"/><path d=" M 48.956 36 L 14.967 36 L 14.967 36 Q 10.574 36 7.414 34.235 L 7.414 34.235 L 7.414 34.235 Q 4.254 32.469 4.254 30.015 L 4.254 30.015 L 4.254 10.985 L 4.254 10.985 Q 4.254 8.531 7.414 6.765 L 7.414 6.765 L 7.414 6.765 Q 10.574 5 14.967 5 L 14.967 5 L 48.956 5 L 48.956 5 Q 53.426 5 56.586 6.765 L 56.586 6.765 L 56.586 6.765 Q 59.746 8.531 59.746 10.985 L 59.746 10.985 L 59.746 13.396 L 49.495 13.396 L 49.495 12.233 L 49.495 12.233 Q 49.495 11.028 49.187 10.877 L 49.187 10.877 L 49.187 10.877 Q 48.879 10.726 46.798 10.726 L 46.798 10.726 L 17.125 10.726 L 17.125 10.726 Q 14.967 10.726 14.697 10.877 L 14.697 10.877 L 14.697 10.877 Q 14.428 11.028 14.428 12.233 L 14.428 12.233 L 14.428 28.767 L 14.428 28.767 Q 14.428 29.972 14.697 30.123 L 14.697 30.123 L 14.697 30.123 Q 14.967 30.274 17.125 30.274 L 17.125 30.274 L 46.798 30.274 L 46.798 30.274 Q 48.879 30.274 49.187 30.123 L 49.187 30.123 L 49.187 30.123 Q 49.495 29.972 49.495 28.767 L 49.495 28.767 L 49.495 24.16 L 36.933 24.16 L 36.933 18.433 L 59.746 18.433 L 59.746 30.015 L 59.746 30.015 Q 59.746 32.469 56.586 34.235 L 56.586 34.235 L 56.586 34.235 Q 53.426 36 48.956 36 L 48.956 36 Z " fill="rgb(140,140,140)"/><defs><linearGradient id="_lgradient_0" x1="0.0017816419638956305" y1="0.038948569766387886" x2="0.9999999999999999" y2="0.49999999999999994"><stop offset="1.25%" style="stop-color:#EAFF00"/><stop offset="98.75%" style="stop-color:#FF0101"/></linearGradient></defs><path d="M 5 26 L 59 26 C 61.76 26 64 28.24 64 31 L 64 59 C 64 61.76 61.76 64 59 64 L 5 64 C 2.24 64 0 61.76 0 59 L 0 31 C 0 28.24 2.24 26 5 26 Z" style="stroke:none;fill:url(#_lgradient_0);stroke-miterlimit:10;"/><path d=" M 12.397 56.4 L 6.5 56.4 L 17.05 34 L 22.21 34 L 32.76 56.4 L 26.863 56.4 L 20.413 41.36 L 20.413 41.36 Q 20.298 41.104 20.148 40.672 L 20.148 40.672 L 20.148 40.672 Q 19.999 40.24 19.86 39.76 L 19.86 39.76 L 19.86 39.76 Q 19.722 39.28 19.63 38.864 L 19.63 38.864 L 19.63 38.864 Q 19.515 39.28 19.377 39.76 L 19.377 39.76 L 19.377 39.76 Q 19.238 40.24 19.1 40.672 L 19.1 40.672 L 19.1 40.672 Q 18.962 41.104 18.847 41.36 L 18.847 41.36 L 12.397 56.4 Z  M 25.942 51.472 L 13.318 51.472 L 14.793 48.016 L 24.467 48.016 L 25.942 51.472 Z  M 50.728 56.4 L 45.245 56.4 L 45.245 34 L 50.728 34 L 50.728 56.4 Z  M 57.5 56.4 L 38.519 56.4 L 38.519 53.04 L 57.5 53.04 L 57.5 56.4 Z  M 57.5 37.36 L 38.519 37.36 L 38.519 34 L 57.5 34 L 57.5 37.36 Z " fill="rgb(255,255,255)"/></g></svg>